<?xml version="1.0" standalone="no"?>
<!DOCTYPE svg PUBLIC "-//W3C//DTD SVG 20010904//EN"
 "http://www.w3.org/TR/2001/REC-SVG-20010904/DTD/svg10.dtd">
<svg version="1.0" xmlns="http://www.w3.org/2000/svg"
 width="1004.000000pt" height="1004.000000pt" viewBox="0 0 1004.000000 1004.000000"
 preserveAspectRatio="xMidYMid meet">
<metadata>
Created by potrace 1.14, written by Peter Selinger 2001-2017
</metadata>
<g transform="translate(0.000000,1004.000000) scale(0.100000,-0.100000)"
fill="#000000" stroke="none">
<path d="M1880 8307 c-90 -31 -181 -112 -260 -230 -14 -20 -28 -37 -32 -37 -5
0 -8 -5 -8 -11 0 -6 -6 -16 -12 -24 -7 -7 -22 -25 -33 -41 -11 -15 -26 -33
-32 -40 -7 -7 -13 -16 -13 -19 0 -8 -72 -99 -82 -103 -5 -2 -8 -10 -8 -18 0
-8 -4 -14 -10 -14 -5 0 -10 -6 -10 -14 0 -8 -4 -16 -8 -18 -5 -1 -28 -30 -53
-63 -24 -33 -47 -61 -51 -63 -5 -2 -8 -8 -8 -13 0 -8 -16 -30 -45 -63 -6 -6
-35 -45 -65 -86 -29 -41 -58 -79 -62 -85 -12 -14 -180 -239 -198 -265 -8 -12
-23 -31 -32 -43 -16 -20 -317 -422 -354 -472 -8 -11 -89 -119 -179 -240 -90
-121 -171 -229 -179 -240 -8 -11 -33 -44 -55 -74 -64 -85 -85 -149 -85 -261
-1 -88 5 -117 35 -185 5 -11 26 -69 48 -130 83 -237 102 -291 110 -310 12 -28
44 -116 76 -205 32 -90 52 -144 71 -188 8 -18 14 -37 14 -42 0 -5 5 -21 12
-37 6 -15 12 -32 14 -38 1 -5 8 -23 15 -40 6 -16 13 -34 15 -40 3 -15 114
-317 124 -340 5 -11 22 -58 38 -105 17 -47 35 -96 40 -110 14 -32 83 -222 87
-235 1 -5 5 -17 8 -25 3 -8 34 -91 68 -185 34 -93 66 -181 72 -195 5 -14 12
-33 14 -43 1 -10 10 -31 18 -47 8 -16 15 -34 15 -40 0 -15 21 -64 66 -156 33
-68 94 -144 114 -144 6 0 10 -3 10 -8 0 -12 82 -45 120 -48 19 -1 49 -5 65 -8
17 -3 50 -9 75 -11 25 -3 56 -8 70 -11 14 -2 41 -7 60 -9 19 -3 49 -7 65 -10
17 -3 46 -7 65 -9 68 -10 158 -23 210 -31 14 -3 42 -7 63 -10 68 -9 102 -15
122 -19 11 -2 47 -7 80 -11 68 -9 73 -10 135 -19 75 -11 124 -18 140 -21 14
-2 106 -16 140 -20 8 -1 33 -5 55 -9 22 -3 58 -9 80 -11 50 -7 162 -23 270
-40 17 -3 46 -7 65 -9 53 -8 102 -15 130 -20 14 -3 46 -8 72 -10 48 -6 104
-14 148 -22 14 -2 45 -6 70 -9 25 -3 55 -8 68 -11 13 -2 55 -9 95 -14 40 -6
88 -12 107 -15 19 -3 67 -10 105 -16 68 -10 95 -14 153 -23 15 -3 45 -7 67
-10 22 -4 58 -9 80 -11 22 -3 65 -10 95 -15 30 -5 78 -12 105 -15 28 -3 61 -8
75 -11 14 -2 43 -7 64 -9 22 -3 51 -7 65 -9 14 -3 62 -10 106 -16 44 -6 94
-14 110 -17 17 -3 41 -6 55 -8 14 -1 45 -5 70 -9 94 -15 138 -22 210 -32 30
-4 57 -8 60 -9 3 -1 32 -5 65 -10 33 -4 67 -9 75 -10 8 -2 38 -6 65 -9 28 -4
61 -9 75 -12 14 -2 45 -6 70 -9 25 -3 52 -8 60 -10 8 -3 38 -7 65 -10 28 -3
64 -8 80 -11 17 -3 41 -6 55 -8 14 -2 43 -7 65 -10 22 -3 51 -8 65 -10 39 -7
121 -18 160 -23 19 -2 51 -6 70 -8 19 -2 35 -4 35 -5 0 -2 29 -7 81 -15 22 -3
52 -8 65 -10 13 -2 44 -6 69 -9 25 -4 56 -8 70 -10 14 -3 41 -7 60 -10 19 -2
58 -8 85 -12 28 -3 59 -8 70 -10 11 -2 40 -7 65 -10 25 -3 56 -7 70 -9 14 -3
45 -7 70 -11 25 -3 52 -7 60 -9 8 -2 42 -7 75 -11 33 -3 62 -8 65 -9 3 -2 33
-7 65 -10 33 -4 69 -9 80 -11 10 -2 37 -6 60 -9 42 -6 76 -12 123 -20 15 -2
47 -7 72 -10 72 -8 114 -14 135 -19 11 -3 46 -8 78 -11 32 -4 68 -8 80 -11 30
-5 74 -12 122 -19 86 -12 171 -25 190 -29 11 -2 43 -7 70 -10 43 -6 108 -15
215 -31 14 -2 50 -7 80 -10 30 -4 58 -9 62 -11 4 -3 27 -7 50 -9 24 -2 52 -6
63 -8 11 -3 47 -8 80 -12 33 -5 69 -10 80 -11 11 -2 39 -5 61 -7 23 -3 47 -8
53 -11 6 -4 11 -5 11 -3 0 2 24 0 53 -5 28 -5 70 -11 92 -14 22 -2 54 -7 70
-10 125 -20 164 -10 210 55 44 64 65 129 81 256 3 22 8 51 10 65 3 14 7 39 9
55 2 17 6 46 9 65 3 19 8 58 12 85 3 28 8 57 9 65 3 16 23 149 31 210 3 19 7
46 9 60 13 80 25 161 30 200 3 25 11 74 16 110 6 36 12 81 14 100 2 19 6 44 8
55 3 11 8 43 11 70 4 28 10 66 13 85 3 19 7 47 7 63 1 15 5 27 9 27 5 0 6 4 3
8 -3 5 1 46 8 93 8 46 17 107 20 134 6 43 11 81 31 205 2 14 9 61 15 105 6 44
13 91 15 105 3 14 7 41 9 60 8 58 16 108 21 143 3 17 14 95 25 172 11 76 22
151 24 165 2 14 7 48 11 75 13 88 23 153 30 200 3 17 7 48 10 70 4 22 8 51 10
65 2 14 9 61 15 105 6 44 13 91 16 105 2 14 6 43 9 65 3 22 8 58 12 80 3 22 7
47 8 55 1 8 6 40 10 70 4 30 8 61 8 68 0 6 4 12 8 12 5 0 6 6 3 14 -3 8 0 41
6 75 6 33 13 80 16 103 6 58 12 103 14 103 1 0 3 14 5 30 1 17 5 44 8 60 6 36
19 122 23 150 1 11 5 37 8 58 3 20 8 54 11 75 3 20 8 51 10 67 3 17 7 46 10
65 2 19 6 52 9 73 3 20 8 53 11 72 14 95 17 114 26 160 5 28 11 73 13 102 2
29 7 57 11 63 14 23 13 214 -2 262 -14 48 -60 104 -85 106 -7 0 -24 3 -38 6
-14 3 -43 8 -65 11 -22 3 -67 10 -100 15 -33 5 -78 12 -100 15 -23 3 -50 7
-61 9 -12 2 -45 7 -75 11 -30 4 -70 10 -89 14 -20 4 -43 7 -53 5 -9 -1 -17 2
-17 7 0 6 -4 8 -9 4 -9 -5 -74 3 -176 21 -16 3 -46 7 -65 9 -36 4 -95 12 -140
20 -14 3 -43 7 -65 10 -22 3 -58 8 -80 12 -22 4 -49 7 -60 8 -11 1 -38 5 -60
9 -51 8 -169 26 -215 32 -19 2 -46 6 -60 9 -14 3 -45 7 -70 10 -25 3 -56 7
-70 10 -37 7 -88 15 -205 30 -27 3 -61 8 -75 11 -14 2 -41 7 -60 10 -33 5 -51
7 -137 19 -21 3 -47 7 -58 10 -11 2 -47 7 -80 11 -33 3 -63 8 -66 10 -3 2 -30
6 -60 9 -30 3 -61 7 -69 9 -8 1 -37 6 -65 10 -27 4 -79 11 -115 17 -36 5 -80
12 -97 14 -18 3 -48 7 -65 10 -18 2 -67 9 -108 15 -41 6 -86 13 -100 15 -126
20 -162 25 -205 30 -27 4 -61 8 -75 11 -14 2 -43 7 -65 10 -22 3 -51 8 -65 10
-14 3 -45 7 -70 9 -25 3 -56 7 -70 10 -14 3 -38 7 -55 9 -16 2 -61 9 -100 15
-69 10 -109 16 -182 26 -37 5 -114 17 -203 32 -25 4 -52 7 -60 8 -15 1 -112
15 -140 20 -8 1 -40 6 -70 10 -30 4 -62 9 -70 10 -18 4 -154 24 -195 30 -32 4
-81 11 -142 21 -21 3 -49 7 -63 9 -14 1 -122 17 -240 34 -118 17 -231 34 -250
36 -36 6 -73 11 -125 20 -16 3 -50 7 -75 10 -25 3 -52 8 -60 10 -8 2 -40 7
-70 10 -30 3 -62 8 -70 10 -14 4 -52 9 -145 21 -22 2 -53 7 -70 11 -16 3 -41
7 -55 8 -14 2 -38 5 -55 8 -16 3 -50 8 -75 11 -25 3 -56 8 -70 11 -14 3 -44 7
-68 10 -23 2 -55 6 -70 9 -15 3 -44 8 -64 11 -21 2 -53 6 -70 9 -37 6 -95 15
-148 22 -19 2 -46 6 -59 9 -13 2 -45 7 -70 11 -25 3 -57 8 -71 10 -14 3 -43 7
-65 9 -22 3 -58 8 -80 11 -22 4 -50 8 -62 9 -22 3 -77 12 -138 21 -49 9 -87
14 -145 20 -30 4 -59 8 -65 9 -55 11 -133 23 -190 30 -49 6 -103 14 -135 20
-14 3 -46 7 -71 10 -25 3 -56 8 -70 11 -55 12 -166 12 -199 1z m3826 -1821
c44 -9 122 -21 204 -31 25 -3 56 -7 70 -10 14 -3 45 -8 70 -11 25 -3 48 -11
51 -16 3 -5 3 -28 -1 -51 -5 -23 -11 -60 -14 -82 -3 -22 -7 -49 -10 -60 -2
-11 -7 -47 -11 -80 -4 -33 -9 -69 -10 -80 -2 -11 -6 -38 -9 -60 -3 -22 -8 -51
-10 -65 -3 -14 -7 -45 -10 -71 -3 -25 -8 -52 -10 -60 -10 -25 7 -36 61 -42 29
-3 56 -8 60 -10 4 -3 39 -8 77 -12 38 -3 72 -8 76 -10 3 -2 33 -6 66 -10 92
-9 119 -19 117 -41 -2 -18 -4 -34 -19 -136 -4 -24 -8 -54 -9 -68 -2 -14 -5
-38 -8 -55 -3 -16 -8 -50 -11 -75 -15 -112 -23 -145 -34 -143 -6 2 -28 5 -49
8 -21 3 -54 7 -73 10 -19 3 -48 7 -65 10 -57 7 -120 17 -145 21 -78 14 -127
15 -127 2 0 -12 -9 -84 -18 -138 -2 -14 -6 -43 -10 -65 -3 -22 -7 -51 -10 -65
-2 -14 -6 -47 -10 -75 -6 -53 -14 -105 -20 -135 -2 -10 -6 -40 -10 -67 -4 -26
-9 -59 -11 -73 -2 -14 -7 -45 -9 -70 -3 -25 -10 -67 -15 -95 -5 -27 -12 -74
-15 -104 -4 -30 -9 -63 -11 -75 -13 -66 -15 -176 -5 -214 14 -49 62 -86 127
-96 21 -4 50 -8 64 -11 42 -7 163 -17 208 -18 l44 -1 -7 -55 c-3 -31 -8 -74
-11 -96 -2 -22 -6 -51 -9 -63 -3 -13 -8 -43 -11 -65 -3 -23 -12 -84 -20 -134
-8 -51 -14 -95 -14 -97 0 -6 -213 1 -255 8 -16 3 -61 8 -100 12 -38 3 -73 8
-76 10 -4 2 -27 6 -50 9 -24 3 -59 8 -78 10 -87 11 -244 74 -301 120 -96 79
-154 175 -176 292 -13 71 -7 229 12 333 2 14 6 43 9 65 5 41 15 107 20 137 2
9 6 44 10 77 3 33 8 70 10 82 3 13 7 41 10 64 4 22 8 52 11 67 2 15 6 47 9 70
2 24 6 57 9 73 3 17 7 50 11 75 3 25 8 56 10 70 2 14 6 41 9 60 14 102 19 127
31 155 23 50 51 75 107 95 48 17 50 19 23 21 -16 1 -39 3 -50 5 -11 2 -36 6
-55 9 -19 2 -46 7 -60 11 -14 3 -41 8 -60 9 -19 2 -53 6 -75 9 -81 13 -78 15
-87 -33 -7 -43 -14 -85 -24 -161 -3 -19 -9 -59 -14 -88 -5 -29 -9 -56 -9 -60
1 -4 0 -9 -1 -12 -1 -3 -4 -16 -5 -30 -3 -29 -13 -94 -20 -130 -2 -14 -7 -45
-9 -70 -3 -25 -7 -56 -10 -70 -5 -27 -16 -99 -21 -140 -5 -40 -15 -113 -20
-140 -10 -55 -16 -94 -21 -139 -2 -25 -6 -57 -9 -71 -2 -14 -9 -56 -15 -95
-19 -127 -20 -140 -30 -200 -5 -33 -12 -82 -16 -110 -3 -27 -8 -57 -9 -65 -2
-9 -6 -42 -10 -74 l-8 -58 -70 7 c-39 3 -73 8 -76 10 -4 1 -28 6 -56 9 -27 3
-61 8 -75 11 -14 3 -45 7 -70 10 -69 7 -146 19 -190 30 -8 2 -20 4 -27 4 -8 1
-11 15 -8 44 8 86 21 241 30 377 3 41 7 99 10 129 5 62 -4 58 -31 -14 -21 -56
-37 -88 -79 -160 -31 -51 -39 -64 -89 -122 -29 -34 -138 -123 -151 -123 -4 0
-19 -8 -33 -18 -53 -36 -150 -57 -267 -56 -190 0 -300 30 -440 117 -31 19
-133 126 -148 155 -8 15 -22 42 -31 59 -41 78 -68 219 -69 358 0 68 9 200 17
240 4 22 24 151 30 200 3 17 7 44 9 60 3 17 9 55 12 85 4 30 9 64 12 75 2 11
6 36 8 55 2 19 6 49 9 65 3 17 7 50 10 75 3 25 8 56 11 70 5 26 12 70 20 135
2 22 7 51 10 65 3 14 7 45 10 70 3 25 8 56 10 70 8 43 23 146 31 215 3 28 8
53 10 56 2 3 6 34 10 69 10 98 17 115 45 114 23 -1 76 -8 144 -19 17 -2 46 -7
65 -10 19 -2 46 -7 60 -9 14 -3 43 -7 65 -10 78 -10 142 -19 220 -32 22 -4 46
-7 53 -7 10 0 11 -11 6 -41 -7 -41 -10 -68 -18 -136 -2 -19 -6 -46 -9 -60 -4
-14 -9 -43 -12 -65 -5 -42 -11 -78 -20 -135 -3 -19 -7 -48 -9 -65 -5 -41 -16
-115 -21 -145 -2 -14 -7 -43 -9 -65 -3 -22 -12 -87 -21 -145 -9 -58 -18 -118
-20 -135 -2 -16 -7 -48 -11 -70 -4 -22 -8 -51 -9 -65 -2 -14 -6 -45 -10 -70
-23 -155 -29 -221 -29 -320 1 -157 43 -242 141 -287 55 -25 152 -34 218 -20
56 12 153 69 207 121 75 73 87 91 93 139 3 23 7 57 10 75 3 17 7 47 10 65 2
17 7 43 10 57 2 14 7 48 11 75 3 28 7 57 9 65 1 8 6 40 10 70 4 30 9 64 12 75
2 11 6 38 8 61 4 38 10 78 20 134 4 22 10 65 20 135 1 11 5 39 9 63 3 23 9 61
12 85 8 51 10 67 19 132 4 28 8 57 10 65 3 16 18 118 20 135 2 23 18 131 21
145 1 8 3 18 3 21 1 3 54 -2 119 -12 64 -9 135 -20 157 -23 22 -3 49 -7 61
-10 12 -2 45 -7 75 -11 30 -3 61 -8 69 -10 8 -2 38 -7 65 -10 50 -7 89 -12
135 -20 14 -2 42 -6 63 -9 20 -3 54 -9 75 -12 100 -16 91 -24 139 121 23 72
43 131 44 133 1 1 2 5 3 10 2 10 76 233 83 252 8 20 9 21 18 55 4 17 10 34 12
38 4 7 79 3 129 -7z m2464 -41 c14 -3 42 -7 63 -10 20 -3 54 -7 75 -10 20 -3
48 -7 62 -10 14 -3 43 -7 65 -10 70 -9 172 -24 200 -29 11 -3 28 -5 39 -5 21
-1 20 -5 -15 -231 -5 -36 -11 -78 -13 -95 -7 -57 -17 -120 -22 -145 -7 -37
-15 -99 -19 -145 -2 -22 -5 -42 -6 -45 -1 -3 -3 -9 -4 -15 -8 -53 -17 -110
-19 -123 -7 -35 -17 -109 -21 -156 -3 -27 -7 -52 -10 -56 -2 -4 -7 -34 -10
-66 -4 -32 -8 -66 -10 -74 -3 -8 -7 -35 -10 -60 -3 -25 -7 -56 -10 -69 -2 -13
-7 -49 -10 -80 -4 -31 -8 -63 -10 -71 -2 -8 -7 -37 -10 -65 -4 -27 -8 -57 -10
-65 -2 -8 -7 -37 -10 -65 -4 -27 -8 -57 -10 -65 -2 -8 -7 -39 -10 -69 -4 -30
-9 -63 -11 -75 -3 -12 -7 -39 -10 -61 -2 -22 -6 -51 -8 -65 -2 -14 -7 -47 -11
-75 -3 -27 -8 -61 -11 -75 -2 -14 -7 -45 -10 -70 -5 -44 -10 -75 -18 -115 -2
-11 -7 -47 -11 -80 -3 -32 -8 -62 -10 -65 -1 -3 -6 -32 -9 -65 -4 -33 -9 -69
-11 -80 -3 -11 -7 -37 -10 -57 -3 -21 -7 -54 -10 -73 -3 -19 -7 -52 -10 -72
-3 -21 -10 -65 -15 -98 -5 -33 -12 -78 -15 -100 -3 -22 -7 -51 -10 -65 -3 -14
-7 -45 -10 -70 -3 -25 -8 -60 -11 -78 l-6 -33 -57 7 c-31 3 -65 8 -76 10 -11
3 -36 7 -55 10 -19 2 -51 7 -70 10 -19 3 -53 7 -75 10 -22 2 -50 6 -62 9 -12
3 -41 7 -65 10 -24 3 -70 10 -103 15 -33 6 -64 10 -68 10 -5 0 -6 19 -2 43 4
23 8 54 11 68 2 15 7 47 10 70 3 24 7 53 9 64 16 108 28 195 30 216 1 15 5 31
9 37 3 6 2 13 -4 17 -5 3 -10 1 -10 -6 0 -17 -67 -146 -103 -199 -37 -53 -97
-115 -152 -156 -136 -101 -338 -124 -545 -63 -81 24 -208 88 -247 126 -7 6
-23 20 -35 30 -28 22 -117 129 -138 163 -46 80 -104 212 -115 264 -8 42 -17
84 -20 101 -2 11 -4 20 -5 20 -6 0 -13 128 -14 255 0 140 4 216 19 305 3 17 7
46 9 65 3 19 5 35 6 35 1 0 3 11 6 25 23 129 102 355 151 432 12 21 23 40 23
42 0 6 59 94 85 126 34 42 168 175 171 170 2 -3 13 3 25 13 26 23 173 97 191
97 8 0 19 5 26 12 7 7 12 9 12 5 0 -3 11 -2 24 3 34 12 130 24 201 23 55 0 82
-3 183 -17 94 -14 237 -85 308 -153 77 -74 142 -179 147 -235 2 -32 19 -1 22
39 1 21 5 47 8 58 4 11 9 40 12 65 2 25 7 56 9 70 4 24 14 94 22 155 2 17 5
39 8 51 2 12 7 43 10 70 4 27 9 65 12 84 3 19 7 49 9 65 2 17 6 39 8 50 3 11
8 47 12 80 4 32 9 68 11 80 2 11 9 54 15 95 5 41 12 86 14 100 2 14 7 45 10
70 4 25 9 52 10 60 2 8 4 21 4 28 1 13 42 12 121 -3z m-6250 -290 c167 -29
332 -157 408 -316 47 -98 53 -123 58 -244 9 -250 -150 -472 -398 -555 -73 -25
-96 -28 -183 -25 -107 3 -161 13 -234 47 -161 73 -272 206 -325 387 -23 77
-16 245 14 328 36 102 119 215 200 273 71 51 168 94 235 104 21 4 40 8 42 9 4
5 146 -1 183 -8z"/>
<path d="M7320 5063 c-14 -2 -32 -6 -40 -9 -8 -3 -15 -4 -15 -3 0 1 -19 -8
-43 -20 -43 -22 -162 -128 -162 -144 0 -5 -9 -22 -21 -38 -11 -16 -18 -29 -14
-29 3 0 -1 -10 -9 -22 -14 -23 -54 -141 -62 -188 -3 -14 -7 -32 -10 -41 -2 -9
-7 -32 -9 -50 -2 -19 -8 -54 -13 -79 -9 -53 -8 -250 2 -300 15 -75 46 -160 58
-160 5 0 8 -6 8 -13 0 -40 139 -146 213 -163 183 -43 373 -6 451 86 14 17 27
37 27 43 3 26 7 54 14 97 9 61 15 98 20 145 3 22 7 51 10 65 3 14 7 41 10 60
2 19 6 49 9 65 6 33 22 143 31 220 4 28 10 66 14 86 15 69 5 143 -28 203 -17
31 -38 64 -48 75 -33 33 -107 78 -158 95 -50 16 -189 28 -235 19z"/>
</g>
</svg>
