<svg width="430" height="138" viewBox="0 0 430 138" fill="none" xmlns="http://www.w3.org/2000/svg">
<path fill-rule="evenodd" clip-rule="evenodd" d="M57.4463 5.70279L1.8792 64.0015C-0.626402 66.6302 -0.626402 70.7633 1.87921 73.392L57.4464 131.691C60.9175 135.333 65.729 137.393 70.7601 137.393L423.195 137.393C426.953 137.393 430 134.347 430 130.588V6.80529C430 3.04683 426.953 0 423.195 0L70.7601 5.14114e-05C65.729 5.21453e-05 60.9175 2.06098 57.4463 5.70279ZM68.0318 68.145C68.0318 76.119 61.5264 82.5832 53.5015 82.5832C45.4767 82.5832 38.9713 76.119 38.9713 68.145C38.9713 60.1709 45.4767 53.7067 53.5015 53.7067C61.5264 53.7067 68.0318 60.1709 68.0318 68.145ZM239.053 106.978V67.8157C239.053 66.0681 239.35 64.8099 239.945 64.041C240.574 63.272 241.447 62.7478 242.566 62.4682H232.028V49.7809H239.053V42.9655C239.053 38.4917 239.945 34.7695 241.727 31.7986C243.51 28.8278 245.904 26.6084 248.91 25.1405C251.915 23.6376 255.218 22.8861 258.818 22.8861C261.3 22.8861 263.17 22.956 264.428 23.0958C265.721 23.2007 266.997 23.3754 268.255 23.6201V37.618C267.486 37.3384 266.507 37.1287 265.319 36.9889C264.131 36.8141 262.82 36.7267 261.387 36.7267C260.199 36.7267 259.15 36.9539 258.241 37.4083C257.333 37.8277 256.616 38.6141 256.092 39.7675C255.603 40.8859 255.358 42.4762 255.358 44.5383V49.7809L265.348 49.7809H279.923L280.862 65.201C281.174 63.5637 281.578 62.0236 282.072 60.5808C282.911 58.0993 283.995 55.9673 285.323 54.1847C286.651 52.4022 288.241 51.0217 290.094 50.0431C291.981 49.0644 294.131 48.5751 296.542 48.5751C297.241 48.5751 297.94 48.6101 298.639 48.68C299.373 48.7499 300.02 48.8722 300.579 49.047V64.4145C300.902 63.6146 301.258 62.8435 301.647 62.1012C303.954 57.6624 307.204 54.3071 311.399 52.0353C315.593 49.7634 320.503 48.6275 326.13 48.6275C331.583 48.6275 336.161 49.6586 339.866 51.7207C343.606 53.7828 346.437 56.8236 348.359 60.8429C349.691 63.6275 350.561 66.8565 350.971 70.5301C351.538 67.3973 352.472 64.5877 353.775 62.1012C356.082 57.6624 359.332 54.3071 363.526 52.0353C367.72 49.7634 372.631 48.6275 378.258 48.6275C383.71 48.6275 388.289 49.6586 391.994 51.7207C395.734 53.7828 398.565 56.8236 400.487 60.8429C402.409 64.8623 403.37 69.8079 403.37 75.6796C403.37 76.4136 403.335 77.2699 403.266 78.2485C403.231 79.1922 403.178 80.2757 403.108 81.499H366.305C366.689 86.2523 367.843 89.7299 369.765 91.9319C371.687 94.0988 374.379 95.1823 377.839 95.1823C380.705 95.1823 382.872 94.5532 384.34 93.295C385.842 92.0367 386.734 90.3766 387.013 88.3144H402.636C402.322 92.2639 401.116 95.7066 399.019 98.6425C396.957 101.543 394.126 103.798 390.526 105.405C386.926 106.978 382.679 107.765 377.786 107.765C371.984 107.765 367.039 106.611 362.949 104.305C358.86 101.998 355.732 98.66 353.565 94.2911C351.773 90.6487 350.722 86.3847 350.412 81.499H314.177C314.562 86.2523 315.715 89.7299 317.637 91.9319C319.56 94.0988 322.251 95.1823 325.711 95.1823C328.577 95.1823 330.744 94.5532 332.212 93.295C333.715 92.0367 334.606 90.3766 334.886 88.3144H350.509C350.194 92.2639 348.988 95.7066 346.891 98.6425C344.829 101.543 341.998 103.798 338.398 105.405C334.798 106.978 330.552 107.765 325.659 107.765C319.857 107.765 314.911 106.611 310.822 104.305C306.733 101.998 303.604 98.66 301.438 94.2911C299.271 89.8872 298.187 84.5747 298.187 78.3534C298.187 73.6398 298.807 69.4707 300.046 65.8461C299.045 65.6055 298.069 65.4407 297.119 65.3516C296.035 65.2118 294.952 65.1419 293.868 65.1419C291.946 65.1419 290.199 65.3167 288.626 65.6662C287.088 66.0157 285.742 66.5574 284.589 67.2914C283.436 67.9904 282.474 68.8991 281.705 70.0176V106.978H265.348V62.4682H255.358V106.978H239.053ZM320.835 72.3243H335.567C335.427 68.6545 334.536 65.9108 332.893 64.0934C331.286 62.2759 328.804 61.3672 325.449 61.3672C321.499 61.3672 318.616 62.7827 316.798 65.6137C314.981 68.4098 314.055 72.3942 314.02 77.567C314.299 75.5748 314.981 74.2117 316.065 73.4777C317.148 72.7088 318.738 72.3243 320.835 72.3243ZM372.963 72.3243H387.695C387.555 68.6545 386.664 65.9108 385.021 64.0934C383.413 62.2759 380.932 61.3672 377.577 61.3672C373.627 61.3672 370.744 62.7827 368.926 65.6137C367.109 68.4098 366.182 72.3942 366.148 77.567C366.427 75.5748 367.109 74.2117 368.192 73.4777C369.276 72.7088 370.866 72.3243 372.963 72.3243ZM186.957 104.042C190.172 106.454 194.017 107.66 198.491 107.66C200.763 107.66 202.737 107.328 204.415 106.664C206.128 105.965 207.596 105.004 208.819 103.78C210.042 102.522 211.073 101.037 211.912 99.324C212.751 97.5765 213.415 95.6542 213.904 93.5571L213.948 93.317L213.957 106.978H230.156V25.4026H213.904L213.925 57.3323C213.458 56.1872 212.822 55.103 212.017 54.0799C210.724 52.4372 209.029 51.1265 206.931 50.1479C204.869 49.1693 202.405 48.68 199.539 48.68C195.101 48.68 191.186 49.8508 187.796 52.1926C184.406 54.4993 181.767 57.8546 179.879 62.2584C177.992 66.6273 177.048 71.9049 177.048 78.0913C177.048 84.0679 177.887 89.2756 179.565 93.7144C181.277 98.1532 183.741 101.596 186.957 104.042ZM213.932 68.5095L213.945 89.46L213.904 89.4154C213.729 90.1494 213.205 90.9008 212.331 91.6697C211.458 92.4037 210.322 93.0328 208.924 93.5571C207.561 94.0464 206.023 94.2911 204.31 94.2911C200.745 94.2911 198.019 92.9629 196.132 90.3067C194.279 87.6504 193.353 83.6834 193.353 78.4058C193.353 72.8836 194.314 68.7943 196.236 66.138C198.194 63.4468 200.937 62.1012 204.467 62.1012C206.215 62.1012 207.718 62.3633 208.976 62.8876C210.269 63.4118 211.318 64.1633 212.122 65.1419C212.961 66.0856 213.555 67.2215 213.904 68.5496L213.932 68.5095ZM164.88 107.66C160.161 107.66 156.491 106.472 153.87 104.095C151.249 101.683 149.921 97.9609 149.886 92.928L149.728 67.3438C149.728 66.0157 150.095 64.9322 150.829 64.0934C151.598 63.2546 152.664 62.7128 154.027 62.4682H143.132V106.978H128.662L127.591 91.219C127.126 93.817 126.365 96.2915 125.307 98.6425C124.083 101.439 122.231 103.728 119.749 105.51C117.303 107.258 114 108.132 109.841 108.132C104.668 108.132 100.649 106.419 97.7826 102.994C94.9166 99.5337 93.4837 94.326 93.4837 87.3708V49.7285H109.841V81.9184C109.841 85.4485 110.12 88.1397 110.68 89.9921C111.274 91.8445 112.095 93.1202 113.144 93.8192C114.192 94.4833 115.45 94.8153 116.918 94.8153C119.085 94.8153 121.043 94.1163 122.79 92.7183C124.573 91.2853 125.901 89.6076 126.775 87.6853V49.7285H143.132V49.7809H149.821L152.717 33.3714H165.981V49.7809H177.777V62.4682H165.981V87.895C165.981 90.3416 166.278 92.0367 166.872 92.9804C167.501 93.9241 168.689 94.3959 170.437 94.3959C172.184 94.3959 173.635 94.361 174.788 94.2911C175.977 94.2212 177.095 94.0988 178.143 93.9241V106.769C176.885 107.223 174.998 107.485 172.481 107.555C170 107.625 167.466 107.66 164.88 107.66Z" fill="#0F172A"/>
</svg>
